<svg xmlns="http://www.w3.org/2000/svg" xmlns:xlink="http://www.w3.org/1999/xlink" width="118" height="128.00390625" viewBox="0 0 118 128.00390625" fill="none"><path d="M25.3255 48.1662L25.3255 64.8619C25.3255 68.8526 26.1721 72.6576 27.6973 76.1007C21.7175 75.813 16.9405 70.885 16.9405 64.8619L12.889 60.9363L16.9405 56.5094L16.9405 38.1246C16.9405 33.5122 13.1914 29.7721 8.56209 29.7721C3.93282 29.7721 0.177002 33.5122 0.177002 38.1246L0.177002 40.3519L4.51064 44.6117L0.177002 48.6952L0.177002 64.8619C0.177002 80.2677 12.7681 92.8057 28.2415 92.8057L32.4542 88.9543L36.6266 92.8057L50.6152 92.8057L59.4639 84.1284L50.6622 75.7759C45.744 74.5509 42.0957 70.124 42.0957 64.8619L37.8561 61.1219L42.0957 59.275C56.259 57.8737 67.3652 45.9388 67.3652 31.4704L67.3652 21.4288C67.3652 16.8164 63.6094 13.0763 58.9801 13.0763C54.3508 13.0763 50.6017 16.8164 50.6017 21.4288L50.6017 23.1179L54.8077 27.3591L50.6017 31.4704C50.6017 36.714 46.9803 41.1315 42.0957 42.3658L42.0957 8.34324C42.0957 3.74007 38.3399 0 33.7106 0C29.0814 0 25.3255 3.74007 25.3255 8.34324L25.3255 23.1179L29.4711 27.3591L25.3255 31.4704L25.3255 39.8137L29.8473 44.0549L25.3255 48.1662Z"   fill="#84D993" ></path><path d="M92.6745 54.8216L92.6745 46.4723L88.7161 42.7594L92.6745 38.1231C92.6745 33.5163 88.9177 29.7739 84.2872 29.7739C79.6566 29.7739 75.9065 33.5163 75.9065 38.1231L75.9065 73.2095L80.1472 77.4528L75.9065 81.5587C75.9065 86.7941 72.2908 91.2045 67.4116 92.4519L67.4318 72.3549C67.4318 67.7481 63.6749 64.0057 59.0444 64.0057C54.4139 64.0057 50.6637 67.7481 50.6637 72.3549L50.6637 75.7732L50.657 77.718L50.6436 92.668L55.7378 97.1078L50.6167 101.155L50.6301 109.357L54.9918 113.806L50.6167 117.706L50.6167 128L67.3847 128L67.3982 109.504L81.3771 109.504L85.3625 105.457L89.7578 109.504C105.235 109.504 117.823 96.9605 117.823 81.5587L113.865 77.4528L117.823 73.2095L117.823 54.8216C117.823 50.2049 114.066 46.4723 109.443 46.4723C104.812 46.4723 101.055 50.2049 101.055 54.8216L105.666 59.2712L101.055 63.1609L101.055 81.5587C101.055 87.5799 96.2835 92.5109 90.3022 92.7957C91.8277 89.348 92.6745 85.5466 92.6745 81.5587L92.6745 63.1609L88.8975 59.2712L92.6745 54.8216Z"   fill="#50BF94" ></path><rect x="50.61669921875" y="109.36181640625" width="8.38327234042553" height="8.347750000000005"   fill="#84D993" ></rect><rect x="81.372314453125" y="101.1533203125" width="8.383272340425528" height="8.347750000000005"   fill="#84D993" ></rect><rect x="84.2896728515625" y="38.12158203125" width="8.383272340425528" height="8.34775"   fill="#84D993" ></rect><rect x="84.2896728515625" y="54.8173828125" width="8.383272340425528" height="8.347749999999998"   fill="#84D993" ></rect><rect x="101.05645751953125" y="54.8173828125" width="8.383272340425528" height="8.347749999999998"   fill="#84D993" ></rect><rect x="109.439697265625" y="73.20751953125" width="8.383272340425542" height="8.347749999999998"   fill="#84D993" ></rect><rect x="75.9063720703125" y="73.20751953125" width="8.383272340425528" height="8.347749999999998"   fill="#84D993" ></rect><rect x="50.61669921875" y="92.8056640625" width="8.38327234042553" height="8.347749999999998"   fill="#84D993" ></rect><rect x="28.24420166015625" y="84.45751953125" width="8.383272340425531" height="8.347750000000005"   fill="#50BF94" ></rect><rect x="8.560302734375" y="56.51220703125" width="8.383272340425531" height="8.347749999999998"   fill="#50BF94" ></rect><rect x="50.59991455078125" y="23.12060546875" width="8.383272340425535" height="8.34775"   fill="#50BF94" ></rect><rect x="25.32684326171875" y="23.12060546875" width="8.383272340425531" height="8.34775"   fill="#50BF94" ></rect><rect x="25.32684326171875" y="39.81640625" width="8.383272340425531" height="8.347749999999998"   fill="#50BF94" ></rect><rect x="33.7103271484375" y="56.51220703125" width="8.383272340425535" height="8.347749999999998"   fill="#50BF94" ></rect><rect x="0.1767578125" y="40.34765625" width="8.38327234042553" height="8.347749999999998"   fill="#50BF94" ></rect></svg>